<svg xmlns="http://www.w3.org/2000/svg" version="1.1" xmlns:xlink="http://www.w3.org/1999/xlink" xmlns:svgjs="http://svgjs.dev/svgjs" width="1440" height="250" preserveAspectRatio="none" viewBox="0 0 1440 250"><g mask="url(&quot;#SvgjsMask1010&quot;)" fill="none"><rect width="1440" height="250" x="0" y="0" fill="url(&quot;#SvgjsLinearGradient1011&quot;)"></rect><path d="M9 250L259 0L496 0L246 250z" fill="url(&quot;#SvgjsLinearGradient1012&quot;)"></path><path d="M244.60000000000002 250L494.6 0L763.1 0L513.1 250z" fill="url(&quot;#SvgjsLinearGradient1012&quot;)"></path><path d="M509.20000000000005 250L759.2 0L1032.2 0L782.2 250z" fill="url(&quot;#SvgjsLinearGradient1012&quot;)"></path><path d="M731.8000000000001 250L981.8000000000001 0L1325.3000000000002 0L1075.3000000000002 250z" fill="url(&quot;#SvgjsLinearGradient1012&quot;)"></path><path d="M1421 250L1171 0L829 0L1079 250z" fill="url(&quot;#SvgjsLinearGradient1013&quot;)"></path><path d="M1193.4 250L943.4000000000001 0L733.4000000000001 0L983.4000000000001 250z" fill="url(&quot;#SvgjsLinearGradient1013&quot;)"></path><path d="M943.8 250L693.8 0L569.3 0L819.3 250z" fill="url(&quot;#SvgjsLinearGradient1013&quot;)"></path><path d="M696.1999999999999 250L446.19999999999993 0L372.69999999999993 0L622.6999999999999 250z" fill="url(&quot;#SvgjsLinearGradient1013&quot;)"></path><path d="M1266.6963085784269 250L1440 76.69630857842694L1440 250z" fill="url(&quot;#SvgjsLinearGradient1012&quot;)"></path><path d="M0 250L173.30369142157306 250L 0 76.69630857842694z" fill="url(&quot;#SvgjsLinearGradient1013&quot;)"></path></g><defs><mask id="SvgjsMask1010"><rect width="1440" height="250" fill="#ffffff"></rect></mask><linearGradient x1="20.66%" y1="-119%" x2="79.34%" y2="219%" gradientUnits="userSpaceOnUse" id="SvgjsLinearGradient1011"><stop stop-color="#0e2a47" offset="0"></stop><stop stop-color="#00459e" offset="1"></stop></linearGradient><linearGradient x1="0%" y1="100%" x2="100%" y2="0%" id="SvgjsLinearGradient1012"><stop stop-color="rgba(15, 70, 185, 0.2)" offset="0"></stop><stop stop-opacity="0" stop-color="rgba(15, 70, 185, 0.2)" offset="0.66"></stop></linearGradient><linearGradient x1="100%" y1="100%" x2="0%" y2="0%" id="SvgjsLinearGradient1013"><stop stop-color="rgba(15, 70, 185, 0.2)" offset="0"></stop><stop stop-opacity="0" stop-color="rgba(15, 70, 185, 0.2)" offset="0.66"></stop></linearGradient></defs></svg>