<svg xmlns="http://www.w3.org/2000/svg" width="1139.17088" height="654.54324" viewBox="0 0 1139.17088 654.54324" xmlns:xlink="http://www.w3.org/1999/xlink" role="img" artist="Katerina Limpitsouni" source="https://undraw.co/">
  <title>progressive_app</title>

  <!-- Define the gradient -->
  <defs>
    <linearGradient id="gradient1" x1="0%" y1="0%" x2="100%" y2="100%">
      <stop offset="0%" style="stop-color:#C89B3C;stop-opacity:1" />
      <stop offset="100%" style="stop-color:#B1911E;stop-opacity:1" />
    </linearGradient>
  </defs>

  <!-- Apply the gradient to the SVG elements -->
  <circle cx="256.45989" cy="513.095" r="59.24334" fill="url(#gradient1)"/>
  <rect x="304.17137" y="447.54324" width="732.99951" height="2" fill="#3f3d56"/>
  <path d="M714.20735,141.38055H454.03775v-5.36232h-117.971v5.36232H74.82467a17.5985,17.5985,0,0,0-17.59852,17.59851V515.23125a17.59856,17.59856,0,0,0,17.59852,17.59858H714.20735a17.59856,17.59856,0,0,0,17.59852-17.59858V158.97906A17.5985,17.5985,0,0,0,714.20735,141.38055Z" transform="translate(-30.41456 -122.72838)" fill="#3f3d56"/>
  <rect x="50.4058" y="49.75362" width="627.3913" height="353.91304" fill="url(#gradient1)"/>
  <circle cx="363.56522" cy="33.66667" r="6.43478" fill="url(#gradient1)"/>
  <polygon points="498.374 403.667 50.406 403.667 50.406 49.754 498.374 403.667" opacity="0.1"/>
  <circle cx="148.57375" cy="316.87641" r="60.3068" fill="url(#gradient1)"/>
  <rect x="509.95272" y="240.62175" width="58.6052" height="12.24586" fill="#3f3d56"/>
  <rect x="439.10165" y="145.27896" width="200.30733" height="5.24823" fill="#3f3d56"/>
  <rect x="439.10165" y="161.89834" width="200.30733" height="5.24823" fill="#3f3d56"/>
  <rect x="439.10165" y="178.51773" width="200.30733" height="5.24823" fill="#3f3d56"/>
  <rect x="439.10165" y="195.13711" width="200.30733" height="5.24823" fill="#3f3d56"/>
  <rect x="439.10165" y="211.7565" width="200.30733" height="5.24823" fill="#3f3d56"/>
  <rect x="614.91726" y="56.9338" width="24.49173" height="24.49173" fill="#f2f2f2"/>
  <path d="M681.1947,215.52507h-29.74v-29.74h29.74Zm-28.44691-1.293h27.15387V187.07816H652.74779Z" transform="translate(-30.41456 -122.72838)" fill="#3f3d56"/>
  <path d="M749.42165,519.96024H688.19234v-4.41153a.87468.87468,0,0,0-.87471-.87471h-20.9929a.87468.87468,0,0,0-.87471.87471v4.41153H652.32945v-4.41153a.87467.87467,0,0,0-.8747-.87471H630.46184a.87468.87468,0,0,0-.8747.87471v4.41153H616.46657v-4.41153a.87468.87468,0,0,0-.8747-.87471H594.599a.87468.87468,0,0,0-.87471.87471v4.41153H580.60369v-4.41153a.87468.87468,0,0,0-.87471-.87471H558.73607a.87468.87468,0,0,0-.8747.87471v4.41153H544.7408v-4.41153a.87468.87468,0,0,0-.8747-.87471H522.87319a.87467.87467,0,0,0-.8747.87471v4.41153H508.87792v-4.41153a.87468.87468,0,0,0-.87471-.87471h-20.9929a.87468.87468,0,0,0-.87471.87471v4.41153H473.015v-4.41153a.87468.87468,0,0,0-.8747-.87471H307.69588a.87468.87468,0,0,0-.8747.87471v4.41153H293.70061v-4.41153a.87468.87468,0,0,0-.8747-.87471H271.833a.87467.87467,0,0,0-.8747.87471v4.41153H257.83773v-4.41153a.87468.87468,0,0,0-.87471-.87471h-20.9929a.87468.87468,0,0,0-.87471.87471v4.41153H221.97484v-4.41153a.87467.87467,0,0,0-.8747-.87471H200.10723a.87468.87468,0,0,0-.8747.87471v4.41153H186.112v-4.41153a.87468.87468,0,0,0-.8747-.87471H164.24435a.87468.87468,0,0,0-.87471.87471v4.41153H150.24908v-4.41153a.87468.87468,0,0,0-.87471-.87471H128.38146a.87468.87468,0,0,0-.8747.87471v4.41153H114.38619v-4.41153a.87468.87468,0,0,0-.8747-.87471H92.51858a.87467.87467,0,0,0-.8747.87471v4.41153H51.40747a20.99293,20.99293,0,0,0-20.99291,20.99291v9.4925A20.99291,20.99291,0,0,0,51.40747,571.4385H749.42165a20.9929,20.9929,0,0,0,20.99291-20.99285v-9.4925A20.99292,20.99292,0,0,0,749.42165,519.96024Z" transform="translate(-30.41456 -122.72838)" fill="#3f3d56"/>
  <path d="M193.58593,477.27162a76,76,0,1,1,76-76A76.08614,76.08614,0,0,1,193.58593,477.27162Zm0-150a74,74,0,1,0,74,74A74.08385,74.08385,0,0,0,193.58593,327.27162Z" transform="translate(-30.41456 -122.72838)" fill="url(#gradient1)"/>
</svg>
